<svg version="1.2" xmlns="http://www.w3.org/2000/svg" viewBox="0 0 390 390" width="390" height="390">
	<title>icon-svg</title>
	<style>
		.s0 { fill: #ffffff } 
		.s1 { opacity: 1;fill: #000000 } 
		.s2 { fill: #0900ff } 
	</style>
	<path id="Ebene 1" class="s0" d="m195 390c-107.8 0-195-87.2-195-195 0-107.8 87.2-195 195-195 107.8 0 195 87.2 195 195 0 107.8-87.2 195-195 195z"/>
	<g id="Layer">
		<path id="Layer" fill-rule="evenodd" class="s1" d="m183.5 34.5q10.5 0 21 0 102.3 12.3 138.5 109 5 16.9 7.5 34 0 16 0 32-13.8 97.3-105 134.5-18.8 6.1-38 8.5-13.5 0-27 0-94.2-12-132.5-99-8.9-24-11.5-49 0-11 0-22 10.2-94.6 96-135.5 24.8-9.8 51-12.5zm39 74.5q-40.1-12.7-76 9-51.8 39-36.5 102.5 21.1 58.5 83.5 63 62.1-3.8 83-62-40.5 0-81 0 0-28.5 0-57 40.5 0 81 0-14-40.3-54-55.5z"/>
	</g>
	<g id="Layer">
		<path id="Layer" fill-rule="evenodd" class="s2" d="m276.5 164.5q20 0 40 0 0 28.5 0 57-20 0-40 0-40.5 0-81 0 0-28.5 0-57 40.5 0 81 0z"/>
	</g>
</svg>