<?xml version="1.0" encoding="UTF-8"?>
<!DOCTYPE svg PUBLIC "-//W3C//DTD SVG 1.1//EN" "http://www.w3.org/Graphics/SVG/1.1/DTD/svg11.dtd">
<svg xmlns="http://www.w3.org/2000/svg" version="1.1" width="1600px" height="785px" style="shape-rendering:geometricPrecision; text-rendering:geometricPrecision; image-rendering:optimizeQuality; fill-rule:evenodd; clip-rule:evenodd" xmlns:xlink="http://www.w3.org/1999/xlink">
<g><path style="opacity:1" fill="#f1f1f1" d="M 25.5,-0.5 C 541.5,-0.5 1057.5,-0.5 1573.5,-0.5C 1586.5,3.83333 1595.17,12.5 1599.5,25.5C 1599.5,269.833 1599.5,514.167 1599.5,758.5C 1595.17,771.5 1586.5,780.167 1573.5,784.5C 1057.5,784.5 541.5,784.5 25.5,784.5C 12.5,780.167 3.83333,771.5 -0.5,758.5C -0.5,514.167 -0.5,269.833 -0.5,25.5C 3.83333,12.5 12.5,3.83333 25.5,-0.5 Z"/></g>
<g><path style="opacity:1" fill="#010101" d="M 393.5,235.5 C 467.227,233.43 520.061,265.43 552,331.5C 571.301,381.089 567.967,429.089 542,475.5C 500.037,537.953 441.87,561.786 367.5,547C 300.483,525.139 261.983,479.305 252,409.5C 247.605,353.143 266.771,306.643 309.5,270C 334.249,250.455 362.249,238.955 393.5,235.5 Z"/></g>
<g><path style="opacity:1" fill="#f1f1f1" d="M 491.5,364.5 C 464.167,364.5 436.833,364.5 409.5,364.5C 409.5,383.5 409.5,402.5 409.5,421.5C 436.833,421.5 464.167,421.5 491.5,421.5C 480.538,453.626 458.538,473.793 425.5,482C 384.33,488.161 352.83,473.661 331,438.5C 310.216,394.694 317.383,356.194 352.5,323C 385.175,299.285 419.175,297.285 454.5,317C 472.231,328.628 484.564,344.461 491.5,364.5 Z"/></g>
<g><path style="opacity:1" fill="#070707" d="M 714.5,357.5 C 745.264,354.766 759.764,368.766 758,399.5C 753.364,423.424 738.864,433.257 714.5,429C 698.432,422.715 690.432,410.882 690.5,393.5C 690.272,375.773 698.272,363.773 714.5,357.5 Z"/></g>
<g><path style="opacity:1" fill="#080808" d="M 799.5,357.5 C 818.079,354.355 828.579,362.021 831,380.5C 831.5,396.497 831.667,412.497 831.5,428.5C 827.5,428.5 823.5,428.5 819.5,428.5C 819.667,411.83 819.5,395.163 819,378.5C 816.012,368.865 809.512,365.032 799.5,367C 791.232,370.004 786.066,375.838 784,384.5C 783.5,399.163 783.333,413.83 783.5,428.5C 779.5,428.5 775.5,428.5 771.5,428.5C 771.5,405.167 771.5,381.833 771.5,358.5C 775.167,358.5 778.833,358.5 782.5,358.5C 782.176,362.555 782.509,366.555 783.5,370.5C 787.355,364.253 792.689,359.919 799.5,357.5 Z"/></g>
<g><path style="opacity:1" fill="#080808" d="M 868.5,357.5 C 887.135,354.057 899.635,361.057 906,378.5C 907.21,385.112 907.71,391.778 907.5,398.5C 890.833,398.5 874.167,398.5 857.5,398.5C 859.44,415.312 868.773,422.145 885.5,419C 890.758,417.574 895.092,414.741 898.5,410.5C 905.305,413.532 905.972,417.366 900.5,422C 889.874,429.544 878.207,431.544 865.5,428C 854.316,423.153 847.816,414.653 846,402.5C 843.321,389.223 845.988,377.223 854,366.5C 858.343,362.585 863.177,359.585 868.5,357.5 Z"/></g>
<g><path style="opacity:1" fill="#0900ff" d="M 491.5,364.5 C 504.5,364.5 517.5,364.5 530.5,364.5C 530.5,383.5 530.5,402.5 530.5,421.5C 517.5,421.5 504.5,421.5 491.5,421.5C 464.167,421.5 436.833,421.5 409.5,421.5C 409.5,402.5 409.5,383.5 409.5,364.5C 436.833,364.5 464.167,364.5 491.5,364.5 Z"/></g>
<g><path style="opacity:1" fill="#eeeeee" d="M 717.5,366.5 C 732.509,364.075 742.009,370.075 746,384.5C 747.161,393.444 746.161,402.11 743,410.5C 735.791,420.459 726.291,423.292 714.5,419C 707.818,414.642 703.985,408.475 703,400.5C 701.162,390.776 702.829,381.776 708,373.5C 710.79,370.535 713.957,368.202 717.5,366.5 Z"/></g>
<g><path style="opacity:1" fill="#eaeaea" d="M 872.5,366.5 C 889.001,365.335 897.001,373.002 896.5,389.5C 883.5,389.5 870.5,389.5 857.5,389.5C 857.373,378.325 862.373,370.659 872.5,366.5 Z"/></g>
</svg>
