<?xml version="1.0" encoding="UTF-8"?>
<!DOCTYPE svg PUBLIC "-//W3C//DTD SVG 1.1//EN" "http://www.w3.org/Graphics/SVG/1.1/DTD/svg11.dtd">
<svg xmlns="http://www.w3.org/2000/svg" version="1.1" width="314px" height="318px" style="shape-rendering:geometricPrecision; text-rendering:geometricPrecision; image-rendering:optimizeQuality; fill-rule:evenodd; clip-rule:evenodd" xmlns:xlink="http://www.w3.org/1999/xlink">
<g><path style="opacity:0.983" fill="#000000" d="M 146.5,-0.5 C 153.5,-0.5 160.5,-0.5 167.5,-0.5C 235.721,7.70592 281.887,44.0393 306,108.5C 309.354,119.786 311.854,131.119 313.5,142.5C 313.5,153.167 313.5,163.833 313.5,174.5C 304.294,239.388 269.294,284.222 208.5,309C 195.967,313.07 183.3,315.903 170.5,317.5C 161.5,317.5 152.5,317.5 143.5,317.5C 80.6724,309.509 36.5057,276.509 11,218.5C 5.08691,202.522 1.25358,186.189 -0.5,169.5C -0.5,162.167 -0.5,154.833 -0.5,147.5C 6.28664,84.413 38.2866,39.2464 95.5,12C 112.058,5.44302 129.058,1.27635 146.5,-0.5 Z M 239.5,129.5 C 212.5,129.5 185.5,129.5 158.5,129.5C 158.5,148.5 158.5,167.5 158.5,186.5C 185.5,186.5 212.5,186.5 239.5,186.5C 225.567,225.322 197.9,245.989 156.5,248.5C 114.932,245.488 87.0983,224.488 73,185.5C 62.7737,143.169 74.9404,109.002 109.5,83C 133.421,68.5591 158.754,65.5591 185.5,74C 212.142,84.1417 230.142,102.642 239.5,129.5 Z"/></g>
<g><path style="opacity:1" fill="#0900ff" d="M 239.5,129.5 C 252.833,129.5 266.167,129.5 279.5,129.5C 279.5,148.5 279.5,167.5 279.5,186.5C 266.167,186.5 252.833,186.5 239.5,186.5C 212.5,186.5 185.5,186.5 158.5,186.5C 158.5,167.5 158.5,148.5 158.5,129.5C 185.5,129.5 212.5,129.5 239.5,129.5 Z"/></g>
</svg>
